<?xml version="1.0" encoding="UTF-8"?>
<!DOCTYPE svg PUBLIC "-//W3C//DTD SVG 1.1//EN" "http://www.w3.org/Graphics/SVG/1.1/DTD/svg11.dtd">
<!-- Creator: CorelDRAW 2020 (64-Bit) -->
<svg xmlns="http://www.w3.org/2000/svg" xml:space="preserve" width="210mm" height="210mm" version="1.1" style="shape-rendering:geometricPrecision; text-rendering:geometricPrecision; image-rendering:optimizeQuality; fill-rule:evenodd; clip-rule:evenodd"
viewBox="0 0 21000 21000"
 xmlns:xlink="http://www.w3.org/1999/xlink"
 xmlns:xodm="http://www.corel.com/coreldraw/odm/2003">
 <defs>
  <style type="text/css">
   <![CDATA[
    .fil0 {fill:black;fill-rule:nonzero}
   ]]>
  </style>
 </defs>
 <g id="Plan_x0020_1">
  <metadata id="CorelCorpID_0Corel-Layer"/>
  <path class="fil0" d="M10485.42 5071.46c524.67,0 950,425.33 950,950 0,524.67 -425.33,950 -950,950 -524.67,0 -950,-425.33 -950,-950 0,-524.67 425.33,-950 950,-950zm7.28 3424.3c-551.64,0 -943.88,232.91 -943.88,576.15l0 4670.33c0,294.17 392.28,588.39 943.88,588.39 527.09,0 956.12,-294.22 956.12,-588.39l0 -4670.33c0,-343.24 -429.03,-576.15 -956.12,-576.15zm-3290.29 9420.82c-201.98,-86.67 -428.07,-98.97 -638.23,-34.75l-2966.81 906.67 254.06 -3091.78c17.95,-219.03 -42.17,-437.36 -169.92,-616.2 -2102.26,-2944.41 -2132.42,-7083.26 296.1,-10098.13 2891.29,-3589.36 8165.72,-4155.61 11757.59,-1262.3 3591.88,2893.29 4161.89,8167.31 1270.59,11756.69 -2430.93,3017.86 -6482.53,3865.23 -9803.38,2439.8zm9698.83 -15644.07c-4400.7,-3544.83 -10828.62,-2854.1 -14371.21,1543.84 -2892.7,3591.1 -2930.23,8477.45 -558.27,12057.89l-339.18 4127.34c-25.21,307.04 103.36,606.63 343.3,799.91 239.93,193.26 560.04,255.09 854.66,165.06l3960.43 -1210.37c4005.23,1555.72 8770.97,476.21 11662.4,-3113.35 3544.83,-4400.7 2845.72,-10827.79 -1552.13,-14370.32z"/>
 </g>
</svg>
