<?xml version="1.0" encoding="UTF-8"?>
<!DOCTYPE svg PUBLIC "-//W3C//DTD SVG 1.1//EN" "http://www.w3.org/Graphics/SVG/1.1/DTD/svg11.dtd">
<!-- Creator: CorelDRAW 2020 (64-Bit) -->
<svg xmlns="http://www.w3.org/2000/svg" xml:space="preserve" width="210mm" height="210mm" version="1.1" style="shape-rendering:geometricPrecision; text-rendering:geometricPrecision; image-rendering:optimizeQuality; fill-rule:evenodd; clip-rule:evenodd"
viewBox="0 0 21000 21000"
 xmlns:xlink="http://www.w3.org/1999/xlink"
 xmlns:xodm="http://www.corel.com/coreldraw/odm/2003">
 <defs>
  <style type="text/css">
   <![CDATA[
    .fil0 {fill:black;fill-rule:nonzero}
   ]]>
  </style>
 </defs>
 <g id="Plan_x0020_1">
  <metadata id="CorelCorpID_0Corel-Layer"/>
  <path class="fil0" d="M10492.22 8530.47c-521.64,0 -892.54,220.25 -892.54,544.81l0 4416.28c0,278.17 370.95,556.38 892.54,556.38 498.42,0 904.11,-278.21 904.11,-556.38l0 -4416.28c0,-324.56 -405.69,-544.81 -904.11,-544.81zm0 -2723.97c-533.2,0 -950.5,382.51 -950.5,822.98 0,440.47 417.29,834.59 950.5,834.59 521.64,0 938.93,-394.12 938.93,-834.59 0,-440.43 -417.33,-822.98 -938.93,-822.98zm5656.85 -2567.46c-3884.18,-3128.76 -9557.63,-2519.1 -12684.41,1362.63 -2553.17,3169.6 -2586.3,7482.42 -492.74,10642.61l-299.37 3642.9c-22.25,271 91.23,535.43 303,706.02 211.77,170.58 494.31,225.15 754.35,145.69l3495.58 -1068.31c3535.12,1373.12 7741.48,420.32 10293.54,-2747.92 3128.76,-3884.18 2511.7,-9556.89 -1369.95,-12683.62zm-8560.44 13807.87c-178.28,-76.51 -377.83,-87.36 -563.32,-30.68l-2618.58 800.25 224.24 -2728.88c15.84,-193.32 -37.23,-386.02 -149.98,-543.88 -1855.51,-2598.81 -1882.13,-6251.87 261.34,-8912.87 2551.93,-3168.07 7207.28,-3667.85 10377.56,-1114.14 3170.28,2553.7 3673.39,7208.68 1121.46,10376.76 -2145.61,2663.65 -5721.65,3411.56 -8652.72,2153.44z"/>
 </g>
</svg>
