<?xml version="1.0" encoding="UTF-8"?>
<!DOCTYPE svg PUBLIC "-//W3C//DTD SVG 1.1//EN" "http://www.w3.org/Graphics/SVG/1.1/DTD/svg11.dtd">
<!-- Creator: CorelDRAW 2020 (64-Bit) -->
<svg xmlns="http://www.w3.org/2000/svg" xml:space="preserve" width="210mm" height="210mm" version="1.1" style="shape-rendering:geometricPrecision; text-rendering:geometricPrecision; image-rendering:optimizeQuality; fill-rule:evenodd; clip-rule:evenodd"
viewBox="0 0 21000 21000"
 xmlns:xlink="http://www.w3.org/1999/xlink"
 xmlns:xodm="http://www.corel.com/coreldraw/odm/2003">
 <defs>
  <style type="text/css">
   <![CDATA[
    .fil0 {fill:black;fill-rule:nonzero}
   ]]>
  </style>
 </defs>
 <g id="Plan_x0020_1">
  <metadata id="CorelCorpID_0Corel-Layer"/>
  <path class="fil0" d="M11660.15 10500.06l4976.76 -4976.82c320.37,-320.37 320.37,-839.79 0,-1160.12 -320.37,-320.33 -839.79,-320.37 -1160.12,0l-4976.81 4976.82 -4976.77 -4976.82c-320.37,-320.37 -839.79,-320.37 -1160.12,0 -320.33,320.37 -320.37,839.79 0,1160.12l4976.77 4976.78 -4976.77 4976.8c-320.37,320.37 -320.37,839.79 0,1160.12 160.17,160.17 370.12,240.23 580.08,240.23 209.96,0 419.88,-80.06 580.08,-240.23l4976.73 -4976.75 4976.77 4976.76c160.17,160.17 370.12,240.23 580.08,240.23 209.96,0 419.88,-80.06 580.08,-240.23 320.37,-320.37 320.37,-839.79 0,-1160.12l-4976.76 -4976.77z"/>
 </g>
</svg>
