<?xml version="1.0" encoding="UTF-8"?>
<!DOCTYPE svg PUBLIC "-//W3C//DTD SVG 1.1//EN" "http://www.w3.org/Graphics/SVG/1.1/DTD/svg11.dtd">
<!-- Creator: CorelDRAW 2020 (64-Bit) -->
<svg xmlns="http://www.w3.org/2000/svg" xml:space="preserve" width="210mm" height="210mm" version="1.1" style="shape-rendering:geometricPrecision; text-rendering:geometricPrecision; image-rendering:optimizeQuality; fill-rule:evenodd; clip-rule:evenodd"
viewBox="0 0 21000 21000"
 xmlns:xlink="http://www.w3.org/1999/xlink"
 xmlns:xodm="http://www.corel.com/coreldraw/odm/2003">
 <defs>
  <style type="text/css">
   <![CDATA[
    .fil0 {fill:black}
   ]]>
  </style>
 </defs>
 <g id="Plan_x0020_1">
  <metadata id="CorelCorpID_0Corel-Layer"/>
  <path class="fil0" d="M548.44 13490.04c-577.95,709.93 -560.61,1727.62 -414.05,2581.97 199.11,1160.57 857.76,2027.19 1836.61,2666.07 726.88,474.42 1517.94,791.18 2375.21,926.62 130.86,12.97 262.97,19.48 394.46,19.48 1004.34,0 1926.87,-313.54 2768.27,-855.69 1335.84,-860.76 2125.3,-2169.65 2558.97,-3673.75l58.12 -201.54 115.14 0c397.67,0 809.29,-60.98 1164.21,-249.42 91.56,-52.88 335.8,-204.96 313.32,-336.06 -28.76,-167.65 -253.48,-230.53 -395.17,-258.9 -226.99,-27.17 -454.44,-48.12 -682.43,-64.72l-189.7 -13.8 54.09 -182.35c190.57,-642.32 382.87,-1285.17 586.89,-1923.35 65.58,-205.15 132.43,-410.21 203.55,-613.51 45.06,-128.84 91.89,-260.65 146.65,-385.7l131.68 -300.72 145.65 294.21c291.6,589.06 506.34,1238.55 682.39,1870.68 239.41,859.58 418.93,1742.25 569.74,2621.35 66.97,390.33 109.28,788.15 141.48,1182.74 15.63,191.41 31.67,383 50.81,574.1 11.07,110.46 22.19,224.46 40.96,333.87l5.23 30.44 -6.99 30.08c-58.78,252.92 -110.95,513.25 -138.25,771.66 -16.5,156.08 -27.74,338.7 -1.07,494.16 15.04,87.72 225.23,368.04 285.03,446.36 148.44,172.86 568.4,203.88 777.04,211.53 266.62,-0.13 651.41,-19.99 893.84,-140.92 530.92,-264.85 1127.51,-643.63 1447.62,-1158.62l1.92 -3.09 2.06 -2.99c41.9,-60.77 79.9,-155.93 107.51,-224.3 60.96,-150.98 114.3,-306.67 165.29,-461.26 172.16,-521.95 321.99,-1055.87 466.99,-1585.92 235.76,-861.84 474.06,-1723.17 719.76,-2582.24 168.75,-590.02 340.17,-1180.5 524.4,-1765.9 473.7,-1505.26 950.88,-3011.66 1453.52,-4507.56 155.38,-462.43 313.22,-924.85 480.51,-1383.13 98.17,-268.93 200.2,-548.99 320.44,-808.84 88.93,-192.17 177.31,-389.38 250.38,-588.21 18.46,-50.25 71.95,-196.98 72.2,-251.65 -10.08,-66.07 1.78,-161.38 8.51,-227.07 7.05,-68.85 11.01,-146.19 -0.74,-214.7 -38.74,-225.78 -264.04,-463.15 -425.76,-611.34 -428.78,-392.92 -1228.72,-455.61 -1779.16,-455.61 -1238.96,0 -2404.05,372.54 -3479.55,972.27 -2000.34,1115.43 -3488.79,2798.21 -4592.94,4787.28l-84.28 151.83 -140.02 -102.71c-991.45,-727.16 -2104.19,-1185.12 -3344.26,-1185.12 -275.52,0 -558.54,31.67 -819.56,123.53 -526.8,185.41 -1006.63,475.04 -1344.64,927.89 -578.93,775.59 -578.91,1814.98 -422.28,2727.98 284.04,1655.71 1808.16,2705.59 3222.42,3374.83l141.34 66.89 -69.9 139.86c-309.25,618.8 -635.44,1237.41 -997.31,1827.25 -242.42,395.14 -519.89,814.67 -836.52,1154.64 -459.42,493.28 -1041.25,726.36 -1713.42,726.36 -504.08,0 -967.02,-138.72 -1354.33,-465.83 -239.77,-202.49 -374.14,-485.04 -436.89,-784.91 -54.97,-238.12 -75.85,-491.94 -7.31,-729.65l31.9 -110.63 115.14 0c405.6,0 720.8,-162.15 952.05,-496.05 253.25,-365.64 311.93,-780.4 237.66,-1213.31 -79.75,-464.87 -298.01,-846.8 -651.04,-1159.06 -328.89,-290.92 -709.71,-457.92 -1151.36,-445.08 -611.48,17.75 -1137.75,224.03 -1542.03,689.28zm13243.37 1197.55c-398.4,-1653.31 -999.26,-3251.21 -1846.99,-4727.83l-40.26 -70.13 35.25 -72.77c585.18,-1208.03 1270.04,-2374.21 1994.82,-3503.24 742.95,-1157.34 1745.6,-2231.12 3104.79,-2626.04 214.25,-62.25 459.95,-121.77 684.08,-121.77 320.5,0 606.27,123.77 664.97,465.98 54.17,315.75 -116.35,700.93 -260.49,973.38 -563.24,1064.66 -1065.4,2169.28 -1544.25,3274.12 -913.52,2107.72 -1756.8,4247.35 -2498.3,6421.83l-170.13 498.92 -123.49 -512.45zm-7167.57 -1974.88c-739,-434.4 -1083.41,-1195.3 -1223.88,-2014.08 -121.74,-709.67 -4.19,-1387.7 350.72,-2014.33 317.36,-560.35 852.64,-775.91 1480.24,-775.91 1117.93,0 2154.33,540.5 3025.36,1200.37l96.47 73.08 -48.89 110.73c-612.19,1386.24 -1221.86,2773.56 -1832.27,4160.59l-50.13 113.93 -121.76 -25.89c-330.45,-70.24 -654.41,-214.18 -950.24,-374.62l-5.09 -2.77 -4.88 -3.14c-236.52,-152.47 -476.46,-299.71 -715.65,-447.96z"/>
 </g>
</svg>
