<?xml version="1.0" encoding="UTF-8"?>
<!DOCTYPE svg PUBLIC "-//W3C//DTD SVG 1.1//EN" "http://www.w3.org/Graphics/SVG/1.1/DTD/svg11.dtd">
<!-- Creator: CorelDRAW 2020 (64-Bit) -->
<svg xmlns="http://www.w3.org/2000/svg" xml:space="preserve" width="210mm" height="210mm" version="1.1" style="shape-rendering:geometricPrecision; text-rendering:geometricPrecision; image-rendering:optimizeQuality; fill-rule:evenodd; clip-rule:evenodd"
viewBox="0 0 21000 21000"
 xmlns:xlink="http://www.w3.org/1999/xlink"
 xmlns:xodm="http://www.corel.com/coreldraw/odm/2003">
 <defs>
  <style type="text/css">
   <![CDATA[
    .fil0 {fill:black;fill-rule:nonzero}
   ]]>
  </style>
 </defs>
 <g id="Plan_x0020_1">
  <metadata id="CorelCorpID_0Corel-Layer"/>
  <path id="XMLID_27_" class="fil0" d="M19100 13726.21c0,-524.67 425.33,-950 950,-950 524.67,0 950,425.33 950,950l0 4473.27c0,771.14 -314.78,1471.49 -821.91,1978.61 -507.12,507.13 -1207.47,821.91 -1978.61,821.91l-15398.95 0c-771.14,0 -1471.49,-314.78 -1978.61,-821.91 -507.13,-507.12 -821.91,-1207.47 -821.91,-1978.61l0 -4473.27c0,-524.67 425.33,-950 950,-950 524.67,0 950,425.33 950,950l0 4473.27c0,246.65 101.6,471.58 265.27,635.25 163.67,163.67 388.6,265.27 635.25,265.27l15398.95 0c246.65,0 471.58,-101.6 635.25,-265.27 163.67,-163.67 265.27,-388.6 265.27,-635.25l0 -4473.27z"/>
  <path id="XMLID_27__0" class="fil0" d="M4750 17372.46c-524.67,0 -950,-425.33 -950,-950 0,-524.67 425.33,-950 950,-950l11500 0c524.67,0 950,425.33 950,950 0,524.67 -425.33,950 -950,950l-11500 0z"/>
  <path id="XMLID_27__1" class="fil0" d="M9824.75 279.72c22.34,-22.27 45.75,-43.46 70.19,-63.45 10.75,-8.78 22.08,-16.42 33.09,-24.69 13.87,-10.44 27.49,-21.19 41.94,-30.8 13.49,-9.04 27.49,-16.86 41.3,-25.14 12.85,-7.7 25.45,-15.78 38.69,-22.85 14.25,-7.64 28.83,-14.06 43.34,-20.87 13.68,-6.49 27.17,-13.36 41.24,-19.15 14.19,-5.85 28.64,-10.63 43.02,-15.72 14.95,-5.41 29.78,-11.14 45.12,-15.78 14.38,-4.33 29.02,-7.57 43.59,-11.2 15.65,-3.95 31.12,-8.34 47.03,-11.52 16.74,-3.31 33.6,-5.28 50.53,-7.7 13.94,-1.97 27.68,-4.65 41.87,-6.05 31.31,-3.05 62.75,-4.77 94.18,-4.77 31.44,0 62.87,1.65 94.18,4.77 14.32,1.4 28.25,4.07 42.45,6.11 16.67,2.35 33.35,4.33 49.89,7.64 16.23,3.18 32.01,7.7 47.98,11.71 14.19,3.63 28.51,6.68 42.57,10.95 15.65,4.77 30.74,10.63 46.07,16.1 14.06,5.09 28.25,9.67 42.13,15.4 14.32,5.92 28,12.85 41.94,19.47 14.32,6.75 28.76,13.11 42.76,20.62 13.36,7.13 25.96,15.21 38.88,22.97 13.81,8.27 27.81,16.04 41.24,25.07 14.13,9.42 27.43,19.98 40.92,30.1 11.39,8.53 23.04,16.42 34.11,25.45 23.23,19.09 45.44,39.26 66.75,60.39 1.02,1.02 2.1,1.78 3.12,2.8l4454.67 4454.42c372.78,372.78 372.78,977.14 0,1349.92 -372.72,372.78 -977.14,372.72 -1349.92,0.06l-2825.2 -2825.01 0 9713.82c0,527.16 -427.38,954.55 -954.55,954.55 -527.16,0 -954.55,-427.38 -954.55,-954.55l0 -9713.81 -2824.95 2824.88c-372.78,372.78 -977.2,372.78 -1349.92,0 -372.78,-372.78 -372.78,-977.14 0,-1349.92l4454.3 -4454.22z"/>
 </g>
</svg>
